<svg width="256" height="44" viewBox="0 0 256 44" fill="none" xmlns="http://www.w3.org/2000/svg">
<path d="M29.4058 0.0609131L16.1365 12.3395C14.7626 13.613 12.9749 14.3172 11.1189 14.3258L7.16376 14.3345L7.15096 0.0609131H0V40.8518H3.89976C6.08 40.8518 8.11517 39.6743 9.18189 37.7398C9.19037 37.7268 9.19469 37.7138 9.20317 37.705C9.91146 36.4099 10.2656 33.8498 10.1974 32.1026C10.0437 28.1082 9.41229 27.0694 9.41229 27.0694C9.28002 29.8077 6.47249 29.9554 6.47249 29.9554C8.46936 28.0126 7.38136 26.5436 7.38136 26.5436C3.84426 29.1079 2.96107 26.3697 2.89277 26.1219C3.00369 26.2176 4.01068 27.0738 5.92214 24.4051C7.94451 21.5843 10.641 16.8815 12.3562 15.6732C14.0757 14.4606 15.7056 14.5605 15.7056 14.5605C15.7056 14.5605 16.6443 13.2653 19.1274 12.1874C21.6107 11.1182 23.2021 12.6872 23.2021 12.6872C20.6634 14.7735 17.216 18.1985 17.024 23.1055C16.8704 27.0781 25.2757 33.8933 23.7995 43.9595C24.6827 41.6736 25.0368 39.383 24.7338 36.5489C24.4906 34.2627 23.0442 29.486 23.0442 29.486L31.1168 40.8478H40.0424L22.5962 16.4338L40.0424 0.0609131H29.4058Z" fill="url(#paint0_linear_221_631)"/>
<path d="M13.1481 17.6247C12.585 18.5766 12.585 18.8678 12.585 18.8678C12.585 18.8678 14.5562 18.5288 15.0895 16.1426C15.0937 16.1426 13.8308 16.473 13.1481 17.6247Z" fill="url(#paint1_linear_221_631)"/>
<path d="M63.969 0L47.1835 33.5586L43.5184 40.8518H51.5402L55.2053 33.5586L63.969 16.0469L72.7366 33.5586L76.4017 40.8518H84.4235L80.7537 33.5586L63.969 0Z" fill="url(#paint2_linear_221_631)"/>
<path d="M123.893 11.0858C123.893 8.05204 122.69 5.30944 120.74 3.26666C118.79 1.28471 116.097 0.059021 113.12 0.059021H87.7966V40.9106H94.9565V22.117H102.116C104.693 22.117 106.928 23.5165 108.187 25.6202L108.358 25.9722L115.862 40.9106H123.884L120.219 33.6175L114.489 22.0039C115.577 21.8866 116.61 21.5954 117.582 21.1303C121.311 19.3744 123.893 15.5235 123.893 11.0858ZM114.608 14.4716C114.152 14.7063 113.635 14.8237 113.12 14.8237L94.9605 14.8802V7.3523H113.12C114.378 7.3523 115.24 7.93469 115.696 8.40411C116.097 8.81262 116.784 9.74716 116.784 11.0902C116.789 12.5462 115.927 13.8892 114.608 14.4716Z" fill="url(#paint3_linear_221_631)"/>
<path d="M162.619 20.4237C162.619 27.6604 156.834 33.5542 149.729 33.5542C142.625 33.5542 136.84 27.6604 136.84 20.4237V0H129.681V20.4237C129.681 31.6853 138.674 40.8471 149.729 40.8471C160.784 40.8471 169.779 31.6853 169.779 20.4237V0H162.619V20.4237Z" fill="url(#paint4_linear_221_631)"/>
<path d="M211.544 11.0858C211.544 8.05204 210.341 5.30944 208.391 3.26666C206.445 1.28471 203.749 0.059021 200.77 0.059021H175.448V40.9106H182.612V22.117H189.771C192.348 22.117 194.584 23.5165 195.843 25.6202L196.013 25.9722L203.519 40.9106H211.54L207.874 33.6175L202.145 22.0039C203.233 21.8866 204.265 21.5954 205.238 21.1303C208.967 19.3744 211.544 15.5235 211.544 11.0858ZM202.264 14.4716C201.807 14.7063 201.292 14.8237 200.775 14.8237L182.612 14.8802V7.3523H200.77C202.029 7.3523 202.891 7.93469 203.347 8.40411C203.749 8.81262 204.435 9.74716 204.435 11.0902C204.44 12.5462 203.578 13.8892 202.264 14.4716Z" fill="url(#paint5_linear_221_631)"/>
<path d="M252.335 33.5586L235.549 0L218.76 33.5586L215.096 40.8518H223.117L226.782 33.5586L235.549 16.0469L244.313 33.5586L247.978 40.8518H256L252.335 33.5586Z" fill="url(#paint6_linear_221_631)"/>
<defs>
<linearGradient id="paint0_linear_221_631" x1="384" y1="49.566" x2="376.296" y2="-28.8113" gradientUnits="userSpaceOnUse">
<stop stop-color="#E40C5B"/>
<stop offset="1" stop-color="#FF4C3B"/>
</linearGradient>
<linearGradient id="paint1_linear_221_631" x1="384.001" y1="49.5659" x2="376.297" y2="-28.8112" gradientUnits="userSpaceOnUse">
<stop stop-color="#E40C5B"/>
<stop offset="1" stop-color="#FF4C3B"/>
</linearGradient>
<linearGradient id="paint2_linear_221_631" x1="384" y1="49.566" x2="376.296" y2="-28.8112" gradientUnits="userSpaceOnUse">
<stop stop-color="#E40C5B"/>
<stop offset="1" stop-color="#FF4C3B"/>
</linearGradient>
<linearGradient id="paint3_linear_221_631" x1="384" y1="49.5659" x2="376.296" y2="-28.8113" gradientUnits="userSpaceOnUse">
<stop stop-color="#E40C5B"/>
<stop offset="1" stop-color="#FF4C3B"/>
</linearGradient>
<linearGradient id="paint4_linear_221_631" x1="384" y1="49.566" x2="376.296" y2="-28.8112" gradientUnits="userSpaceOnUse">
<stop stop-color="#E40C5B"/>
<stop offset="1" stop-color="#FF4C3B"/>
</linearGradient>
<linearGradient id="paint5_linear_221_631" x1="384" y1="49.5659" x2="376.296" y2="-28.8113" gradientUnits="userSpaceOnUse">
<stop stop-color="#E40C5B"/>
<stop offset="1" stop-color="#FF4C3B"/>
</linearGradient>
<linearGradient id="paint6_linear_221_631" x1="384" y1="49.566" x2="376.296" y2="-28.8112" gradientUnits="userSpaceOnUse">
<stop stop-color="#E40C5B"/>
<stop offset="1" stop-color="#FF4C3B"/>
</linearGradient>
</defs>
</svg>
