<?xml version="1.0" encoding="utf-8"?>
<!-- Generator: Adobe Illustrator 16.0.0, SVG Export Plug-In . SVG Version: 6.00 Build 0)  -->
<!DOCTYPE svg PUBLIC "-//W3C//DTD SVG 1.1//EN" "http://www.w3.org/Graphics/SVG/1.1/DTD/svg11.dtd">
<svg version="1.1" id="Layer_1" xmlns="http://www.w3.org/2000/svg" xmlns:xlink="http://www.w3.org/1999/xlink" x="0px" y="0px"
	 width="300px" height="276px" viewBox="0 0 300 276" enable-background="new 0 0 300 276" xml:space="preserve">
<g>
	<defs>
		<rect id="SVGID_1_" y="-7" width="300" height="300"/>
	</defs>
	<clipPath id="SVGID_2_">
		<use xlink:href="#SVGID_1_"  overflow="visible"/>
	</clipPath>
	<g clip-path="url(#SVGID_2_)">
		<defs>
			<rect id="SVGID_3_" y="-7" width="300" height="300"/>
		</defs>
		<clipPath id="SVGID_4_">
			<use xlink:href="#SVGID_3_"  overflow="visible"/>
		</clipPath>
		<path clip-path="url(#SVGID_4_)" fill="#CED8EE" d="M32.813,30.5h234.375c10.354,0,18.75,8.396,18.75,18.75v178.125
			c0,10.354-8.396,18.75-18.75,18.75H32.813c-10.354,0-18.75-8.396-18.75-18.75V49.25C14.063,38.896,22.458,30.5,32.813,30.5"/>
		<path clip-path="url(#SVGID_4_)" fill="#6D6DAA" d="M267.188,250.813H32.813c-12.937-0.014-23.424-10.501-23.438-23.438V49.25
			c0.014-12.937,10.501-23.424,23.438-23.438h234.375c12.937,0.014,23.424,10.501,23.438,23.438v178.125
			C290.611,240.312,280.124,250.799,267.188,250.813 M32.813,35.188c-7.761,0.009-14.053,6.301-14.063,14.063v178.125
			c0.009,7.764,6.301,14.058,14.063,14.063h234.375c7.764-0.005,14.054-6.299,14.063-14.063V49.25
			c-0.009-7.761-6.299-14.053-14.063-14.063H32.813z"/>
		<g opacity="0.5" clip-path="url(#SVGID_4_)" enable-background="new    ">
			<g>
				<defs>
					<rect id="SVGID_5_" x="14.063" y="30.5" width="271.875" height="32.813"/>
				</defs>
				<clipPath id="SVGID_6_">
					<use xlink:href="#SVGID_5_"  overflow="visible"/>
				</clipPath>
				<path clip-path="url(#SVGID_6_)" fill="#FFFFFF" d="M267.188,30.5H32.813c-10.354,0-18.75,8.396-18.75,18.75v14.063
					c0-10.354,8.396-18.75,18.75-18.75h234.375c10.354,0,18.75,8.396,18.75,18.75V49.25C285.938,38.896,277.542,30.5,267.188,30.5"
					/>
			</g>
		</g>
		<g opacity="0.2" clip-path="url(#SVGID_4_)" enable-background="new    ">
			<g>
				<defs>
					<rect id="SVGID_7_" x="14.063" y="213.313" width="271.875" height="32.813"/>
				</defs>
				<clipPath id="SVGID_8_">
					<use xlink:href="#SVGID_7_"  overflow="visible"/>
				</clipPath>
				<path clip-path="url(#SVGID_8_)" fill="#2C4B75" d="M267.188,232.063H32.813c-10.354,0-18.75-8.396-18.75-18.75v14.063
					c0,10.354,8.396,18.75,18.75,18.75h234.375c10.354,0,18.75-8.396,18.75-18.75v-14.063
					C285.938,223.667,277.542,232.063,267.188,232.063"/>
			</g>
		</g>
		<path clip-path="url(#SVGID_4_)" fill="#C9C1F5" d="M248.438,105.5V86.75c0-5.175,4.202-9.375,9.375-9.375V68
			c0-5.175-4.202-9.375-9.375-9.375H51.563c-5.175,0-9.375,4.2-9.375,9.375v140.625c0,5.182,4.2,9.375,9.375,9.375h196.875
			c5.173,0,9.375-4.193,9.375-9.375v-9.375c-5.173,0-9.375-4.193-9.375-9.375v-18.75c0-5.173,4.202-9.375,9.375-9.375v-46.875
			C252.64,114.875,248.438,110.68,248.438,105.5"/>
		<polygon clip-path="url(#SVGID_4_)" fill="#FFF27D" points="56.25,218 70.313,171.125 117.188,171.125 131.25,218 		"/>
		<g opacity="0.5" clip-path="url(#SVGID_4_)" enable-background="new    ">
			<g>
				<defs>
					<rect id="SVGID_9_" x="66.094" y="171.125" width="55.312" height="14.063"/>
				</defs>
				<clipPath id="SVGID_10_">
					<use xlink:href="#SVGID_9_"  overflow="visible"/>
				</clipPath>
				<polygon clip-path="url(#SVGID_10_)" fill="#FFFFFF" points="121.408,185.188 117.19,171.125 70.315,171.125 66.092,185.188 
									"/>
			</g>
		</g>
		<g opacity="0.5" clip-path="url(#SVGID_4_)" enable-background="new    ">
			<g>
				<defs>
					<rect id="SVGID_11_" x="57.221" y="171.125" width="43.641" height="43.643"/>
				</defs>
				<clipPath id="SVGID_12_">
					<use xlink:href="#SVGID_11_"  overflow="visible"/>
				</clipPath>
				<polygon clip-path="url(#SVGID_12_)" fill="#FFFFFF" points="100.859,171.125 70.31,171.125 57.218,214.764 				"/>
			</g>
		</g>
		<g opacity="0.5" clip-path="url(#SVGID_4_)" enable-background="new    ">
			<g>
				<defs>
					<rect id="SVGID_13_" x="73.874" y="173.867" width="48.722" height="44.133"/>
				</defs>
				<clipPath id="SVGID_14_">
					<use xlink:href="#SVGID_13_"  overflow="visible"/>
				</clipPath>
				<polygon clip-path="url(#SVGID_14_)" fill="#FFFFFF" points="118.007,173.867 73.874,218 93.764,218 122.596,189.161 				"/>
			</g>
		</g>
		<g opacity="0.2" clip-path="url(#SVGID_4_)" enable-background="new    ">
			<g>
				<defs>
					<rect id="SVGID_15_" x="56.25" y="203.938" width="75" height="14.063"/>
				</defs>
				<clipPath id="SVGID_16_">
					<use xlink:href="#SVGID_15_"  overflow="visible"/>
				</clipPath>
				<polygon clip-path="url(#SVGID_16_)" fill="#750000" points="60.471,203.938 56.252,218 131.252,218 127.029,203.938 				"/>
			</g>
		</g>
		<path clip-path="url(#SVGID_4_)" fill="#6D6DAA" d="M131.248,222.688h-75c-2.586,0-4.688-2.097-4.688-4.688
			c0-0.453,0.066-0.911,0.197-1.346l14.063-46.875c0.595-1.982,2.424-3.342,4.491-3.342h46.875c2.074,0,3.896,1.359,4.491,3.342
			l14.063,46.875c0.742,2.48-0.659,5.09-3.145,5.836C132.163,222.623,131.708,222.688,131.248,222.688 M62.554,213.313h62.395
			l-11.25-37.5H73.798L62.554,213.313z"/>
		<polygon clip-path="url(#SVGID_4_)" fill="#FFF27D" points="131.25,218 145.313,171.125 192.188,171.125 206.25,218 		"/>
		<g opacity="0.5" clip-path="url(#SVGID_4_)" enable-background="new    ">
			<g>
				<defs>
					<rect id="SVGID_17_" x="141.094" y="171.125" width="55.314" height="14.063"/>
				</defs>
				<clipPath id="SVGID_18_">
					<use xlink:href="#SVGID_17_"  overflow="visible"/>
				</clipPath>
				<polygon clip-path="url(#SVGID_18_)" fill="#FFFFFF" points="196.408,185.188 192.188,171.125 145.315,171.125 141.092,185.188 
									"/>
			</g>
		</g>
		<g opacity="0.5" clip-path="url(#SVGID_4_)" enable-background="new    ">
			<g>
				<defs>
					<rect id="SVGID_19_" x="132.221" y="171.125" width="43.639" height="43.643"/>
				</defs>
				<clipPath id="SVGID_20_">
					<use xlink:href="#SVGID_19_"  overflow="visible"/>
				</clipPath>
				<polygon clip-path="url(#SVGID_20_)" fill="#FFFFFF" points="175.859,171.125 145.31,171.125 132.218,214.764 				"/>
			</g>
		</g>
		<g opacity="0.5" clip-path="url(#SVGID_4_)" enable-background="new    ">
			<g>
				<defs>
					<rect id="SVGID_21_" x="148.874" y="173.867" width="48.725" height="44.133"/>
				</defs>
				<clipPath id="SVGID_22_">
					<use xlink:href="#SVGID_21_"  overflow="visible"/>
				</clipPath>
				<polygon clip-path="url(#SVGID_22_)" fill="#FFFFFF" points="193.007,173.867 148.874,218 168.764,218 197.594,189.161 				"/>
			</g>
		</g>
		<g opacity="0.2" clip-path="url(#SVGID_4_)" enable-background="new    ">
			<g>
				<defs>
					<rect id="SVGID_23_" x="131.25" y="203.938" width="75" height="14.063"/>
				</defs>
				<clipPath id="SVGID_24_">
					<use xlink:href="#SVGID_23_"  overflow="visible"/>
				</clipPath>
				<polygon clip-path="url(#SVGID_24_)" fill="#750000" points="135.471,203.938 131.252,218 206.25,218 202.029,203.938 				"/>
			</g>
		</g>
		<path clip-path="url(#SVGID_4_)" fill="#6D6DAA" d="M206.25,222.688h-75.002c-2.586,0-4.688-2.097-4.688-4.688
			c0-0.453,0.066-0.911,0.197-1.346l14.063-46.875c0.595-1.982,2.424-3.342,4.491-3.342h46.877c2.069,0,3.896,1.359,4.49,3.342
			l14.063,46.875c0.737,2.48-0.663,5.09-3.145,5.836C207.161,222.623,206.708,222.688,206.25,222.688 M137.554,213.313h62.397
			l-11.252-37.5h-39.901L137.554,213.313z"/>
		<polygon clip-path="url(#SVGID_4_)" fill="#FFF27D" points="93.75,171.125 107.813,124.25 154.688,124.25 168.75,171.125 		"/>
		<g opacity="0.5" clip-path="url(#SVGID_4_)" enable-background="new    ">
			<g>
				<defs>
					<rect id="SVGID_25_" x="103.594" y="124.25" width="55.314" height="14.063"/>
				</defs>
				<clipPath id="SVGID_26_">
					<use xlink:href="#SVGID_25_"  overflow="visible"/>
				</clipPath>
				<polygon clip-path="url(#SVGID_26_)" fill="#FFFFFF" points="158.908,138.313 154.688,124.25 107.815,124.25 103.592,138.313 
									"/>
			</g>
		</g>
		<g opacity="0.5" clip-path="url(#SVGID_4_)" enable-background="new    ">
			<g>
				<defs>
					<rect id="SVGID_27_" x="94.721" y="124.25" width="43.641" height="43.643"/>
				</defs>
				<clipPath id="SVGID_28_">
					<use xlink:href="#SVGID_27_"  overflow="visible"/>
				</clipPath>
				<polygon clip-path="url(#SVGID_28_)" fill="#FFFFFF" points="138.359,124.25 107.81,124.25 94.718,167.889 				"/>
			</g>
		</g>
		<g opacity="0.5" clip-path="url(#SVGID_4_)" enable-background="new    ">
			<g>
				<defs>
					<rect id="SVGID_29_" x="111.374" y="126.992" width="48.725" height="44.133"/>
				</defs>
				<clipPath id="SVGID_30_">
					<use xlink:href="#SVGID_29_"  overflow="visible"/>
				</clipPath>
				<polygon clip-path="url(#SVGID_30_)" fill="#FFFFFF" points="155.507,126.992 111.374,171.125 131.264,171.125 160.094,142.288 
									"/>
			</g>
		</g>
		<g opacity="0.2" clip-path="url(#SVGID_4_)" enable-background="new    ">
			<g>
				<defs>
					<rect id="SVGID_31_" x="93.75" y="157.063" width="75" height="14.063"/>
				</defs>
				<clipPath id="SVGID_32_">
					<use xlink:href="#SVGID_31_"  overflow="visible"/>
				</clipPath>
				<polygon clip-path="url(#SVGID_32_)" fill="#750000" points="97.971,157.063 93.752,171.125 168.75,171.125 164.529,157.063 
									"/>
			</g>
		</g>
		<path clip-path="url(#SVGID_4_)" fill="#6D6DAA" d="M168.75,175.813H93.748c-2.586,0-4.688-2.097-4.688-4.688
			c0-0.453,0.066-0.911,0.197-1.346l14.063-46.875c0.595-1.982,2.424-3.342,4.491-3.342h46.877c2.069,0,3.896,1.359,4.49,3.342
			l14.063,46.875c0.737,2.48-0.663,5.09-3.145,5.836C169.661,175.748,169.208,175.813,168.75,175.813 M100.054,166.438h62.397
			l-11.252-37.5h-39.901L100.054,166.438z"/>
		<polygon clip-path="url(#SVGID_4_)" fill="#FFF27D" points="131.25,124.25 145.313,77.375 192.188,77.375 206.25,124.25 		"/>
		<g opacity="0.5" clip-path="url(#SVGID_4_)" enable-background="new    ">
			<g>
				<defs>
					<rect id="SVGID_33_" x="141.094" y="77.375" width="55.314" height="14.063"/>
				</defs>
				<clipPath id="SVGID_34_">
					<use xlink:href="#SVGID_33_"  overflow="visible"/>
				</clipPath>
				<polygon clip-path="url(#SVGID_34_)" fill="#FFFFFF" points="196.408,91.438 192.188,77.375 145.315,77.375 141.092,91.438 				
					"/>
			</g>
		</g>
		<g opacity="0.5" clip-path="url(#SVGID_4_)" enable-background="new    ">
			<g>
				<defs>
					<rect id="SVGID_35_" x="132.221" y="77.375" width="43.639" height="43.641"/>
				</defs>
				<clipPath id="SVGID_36_">
					<use xlink:href="#SVGID_35_"  overflow="visible"/>
				</clipPath>
				<polygon clip-path="url(#SVGID_36_)" fill="#FFFFFF" points="175.859,77.375 145.31,77.375 132.218,121.016 				"/>
			</g>
		</g>
		<g opacity="0.5" clip-path="url(#SVGID_4_)" enable-background="new    ">
			<g>
				<defs>
					<rect id="SVGID_37_" x="148.874" y="80.117" width="48.725" height="44.133"/>
				</defs>
				<clipPath id="SVGID_38_">
					<use xlink:href="#SVGID_37_"  overflow="visible"/>
				</clipPath>
				<polygon clip-path="url(#SVGID_38_)" fill="#FFFFFF" points="193.007,80.117 148.874,124.25 168.764,124.25 197.594,95.413 				
					"/>
			</g>
		</g>
		<g opacity="0.2" clip-path="url(#SVGID_4_)" enable-background="new    ">
			<g>
				<defs>
					<rect id="SVGID_39_" x="131.25" y="110.188" width="75" height="14.063"/>
				</defs>
				<clipPath id="SVGID_40_">
					<use xlink:href="#SVGID_39_"  overflow="visible"/>
				</clipPath>
				<polygon clip-path="url(#SVGID_40_)" fill="#750000" points="135.471,110.188 131.252,124.25 206.25,124.25 202.029,110.188 
									"/>
			</g>
		</g>
		<path clip-path="url(#SVGID_4_)" fill="#6D6DAA" d="M206.25,128.938h-75.002c-2.586,0-4.688-2.094-4.688-4.688
			c0-0.456,0.066-0.909,0.197-1.346l14.063-46.875c0.595-1.982,2.424-3.342,4.491-3.342h46.877c2.069,0,3.896,1.359,4.49,3.342
			l14.063,46.875c0.737,2.481-0.663,5.09-3.145,5.836C207.161,128.871,206.708,128.938,206.25,128.938 M137.554,119.563h62.397
			l-11.252-37.5h-39.901L137.554,119.563z"/>
		<g opacity="0.2" clip-path="url(#SVGID_4_)" enable-background="new    ">
			<g>
				<defs>
					<rect id="SVGID_41_" x="42.188" y="58.625" width="215.625" height="23.438"/>
				</defs>
				<clipPath id="SVGID_42_">
					<use xlink:href="#SVGID_41_"  overflow="visible"/>
				</clipPath>
				<path clip-path="url(#SVGID_42_)" fill="#2C4B75" d="M248.438,58.625H51.563c-5.175,0-9.375,4.2-9.375,9.375v14.063
					c0-5.175,4.2-9.375,9.375-9.375h196.875c3.388,0.009,6.5,1.852,8.144,4.813c0.407-0.069,0.819-0.112,1.231-0.126V68
					C257.813,62.825,253.61,58.625,248.438,58.625"/>
			</g>
		</g>
		<rect x="42.188" y="246.125" clip-path="url(#SVGID_4_)" fill="#9EB2CC" width="18.75" height="18.75"/>
		<rect x="239.063" y="246.125" clip-path="url(#SVGID_4_)" fill="#9EB2CC" width="18.75" height="18.75"/>
		<path clip-path="url(#SVGID_4_)" fill="#EEF6FF" d="M192.188,255.5h-18.75c-5.173,0-9.375-4.193-9.375-9.375V30.5
			c0-5.175,4.202-9.375,9.375-9.375h18.75V255.5z"/>
		<polygon clip-path="url(#SVGID_4_)" fill="#EEF6FF" points="257.813,208.625 192.188,264.875 192.188,11.75 257.813,68 		"/>
		<path clip-path="url(#SVGID_4_)" fill="#6D6DAA" d="M60.938,269.563h-18.75c-2.593,0-4.688-2.102-4.688-4.688v-18.75
			c0-2.586,2.094-4.688,4.688-4.688h18.75c2.593,0,4.688,2.102,4.688,4.688v18.75C65.625,267.461,63.531,269.563,60.938,269.563
			 M46.875,260.188h9.375v-9.375h-9.375V260.188z"/>
		<path clip-path="url(#SVGID_4_)" fill="#6D6DAA" d="M257.813,269.563h-18.75c-2.591,0-4.688-2.102-4.688-4.688v-18.75
			c0-2.586,2.097-4.688,4.688-4.688h18.75c2.591,0,4.688,2.102,4.688,4.688v18.75C262.5,267.461,260.403,269.563,257.813,269.563
			 M243.75,260.188h9.375v-9.375h-9.375V260.188z"/>
		<g opacity="0.2" clip-path="url(#SVGID_4_)" enable-background="new    ">
			<g>
				<defs>
					<rect id="SVGID_43_" x="150" y="30.5" width="9.375" height="215.625"/>
				</defs>
				<clipPath id="SVGID_44_">
					<use xlink:href="#SVGID_43_"  overflow="visible"/>
				</clipPath>
				<rect x="150" y="30.5" clip-path="url(#SVGID_44_)" fill="#2C4B75" width="9.375" height="215.625"/>
			</g>
		</g>
		<path clip-path="url(#SVGID_4_)" fill="#6D6DAA" d="M257.813,119.563c-2.591,0-4.688-2.101-4.688-4.688s2.097-4.688,4.688-4.688
			c2.586,0,4.683-2.101,4.688-4.688V86.75c-0.005-2.586-2.102-4.683-4.688-4.688c-2.591,0-4.688-2.101-4.688-4.688
			s2.097-4.688,4.688-4.688c7.764,0.009,14.054,6.301,14.063,14.063v18.75C271.866,113.261,265.576,119.558,257.813,119.563"/>
		<path clip-path="url(#SVGID_4_)" fill="#6D6DAA" d="M257.813,203.938c-2.591,0-4.688-2.102-4.688-4.688s2.097-4.688,4.688-4.688
			c2.586,0,4.683-2.102,4.688-4.688v-18.75c-0.005-2.586-2.102-4.683-4.688-4.688c-2.591,0-4.688-2.102-4.688-4.688
			s2.097-4.688,4.688-4.688c7.764,0.01,14.054,6.299,14.063,14.063v18.75C271.866,197.639,265.576,203.933,257.813,203.938"/>
		<path clip-path="url(#SVGID_4_)" fill="#6D6DAA" d="M267.188,250.813H214.06c-2.587,0-4.688-2.102-4.688-4.688
			s2.101-4.688,4.688-4.688h53.128c7.764-0.005,14.054-6.299,14.063-14.063V49.25c-0.009-7.761-6.299-14.053-14.063-14.063H214.06
			c-2.587,0-4.688-2.101-4.688-4.688s2.101-4.688,4.688-4.688h53.128c12.937,0.014,23.424,10.501,23.438,23.438v178.125
			C290.611,240.312,280.124,250.799,267.188,250.813"/>
		<path clip-path="url(#SVGID_4_)" fill="#6D6DAA" d="M164.063,250.813H32.813c-12.937-0.014-23.424-10.501-23.438-23.438V49.25
			c0.014-12.937,10.501-23.424,23.438-23.438h131.25c2.591,0,4.688,2.101,4.688,4.688s-2.097,4.688-4.688,4.688H32.813
			c-7.761,0.009-14.053,6.301-14.063,14.063v178.125c0.009,7.764,6.301,14.058,14.063,14.063h131.25
			c2.591,0,4.688,2.102,4.688,4.688S166.653,250.813,164.063,250.813"/>
		<path clip-path="url(#SVGID_4_)" fill="#6D6DAA" d="M164.063,222.688h-112.5c-7.761-0.005-14.053-6.299-14.063-14.063V68
			c0.009-7.761,6.301-14.053,14.063-14.063h112.5c2.591,0,4.688,2.101,4.688,4.688s-2.097,4.688-4.688,4.688h-112.5
			c-2.586,0.005-4.683,2.101-4.688,4.688v140.625c0.005,2.586,2.101,4.688,4.688,4.688h112.5c2.591,0,4.688,2.102,4.688,4.688
			S166.653,222.688,164.063,222.688"/>
		<path clip-path="url(#SVGID_4_)" fill="#6D6DAA" d="M257.813,72.688c-2.591,0-4.688-2.101-4.688-4.688
			c-0.005-2.586-2.102-4.683-4.688-4.688h-1.565c-2.587,0-4.688-2.101-4.688-4.688s2.101-4.688,4.688-4.688h1.565
			c7.764,0.009,14.054,6.301,14.063,14.063C262.5,70.586,260.403,72.688,257.813,72.688"/>
		<path clip-path="url(#SVGID_4_)" fill="#6D6DAA" d="M248.438,222.688h-1.565c-2.587,0-4.688-2.102-4.688-4.688
			s2.101-4.688,4.688-4.688h1.565c2.586,0,4.683-2.102,4.688-4.688c0-2.586,2.097-4.688,4.688-4.688s4.688,2.102,4.688,4.688
			C262.491,216.389,256.201,222.683,248.438,222.688"/>
		<g opacity="0.2" clip-path="url(#SVGID_4_)" enable-background="new    ">
			<g>
				<defs>
					<rect id="SVGID_45_" x="164.063" y="232.063" width="28.125" height="23.438"/>
				</defs>
				<clipPath id="SVGID_46_">
					<use xlink:href="#SVGID_45_"  overflow="visible"/>
				</clipPath>
				<path clip-path="url(#SVGID_46_)" fill="#2C4B75" d="M164.063,232.063v14.063c0,5.182,4.202,9.375,9.375,9.375h18.75v-14.063
					h-18.75C168.265,241.438,164.063,237.244,164.063,232.063z"/>
			</g>
		</g>
		<g opacity="0.75" clip-path="url(#SVGID_4_)" enable-background="new    ">
			<g>
				<defs>
					<rect id="SVGID_47_" x="164.063" y="21.125" width="28.125" height="23.438"/>
				</defs>
				<clipPath id="SVGID_48_">
					<use xlink:href="#SVGID_47_"  overflow="visible"/>
				</clipPath>
				<path clip-path="url(#SVGID_48_)" fill="#FFFFFF" d="M173.438,21.125c-5.173,0-9.375,4.2-9.375,9.375v14.063
					c0-5.175,4.202-9.375,9.375-9.375h18.75V21.125H173.438z"/>
			</g>
		</g>
		<g opacity="0.2" clip-path="url(#SVGID_4_)" enable-background="new    ">
			<g>
				<defs>
					<rect id="SVGID_49_" x="192.188" y="189.875" width="65.625" height="75"/>
				</defs>
				<clipPath id="SVGID_50_">
					<use xlink:href="#SVGID_49_"  overflow="visible"/>
				</clipPath>
				<polygon clip-path="url(#SVGID_50_)" fill="#2C4B75" points="192.188,264.875 257.813,208.625 257.813,189.875 192.188,246.125 
									"/>
			</g>
		</g>
		<g opacity="0.75" clip-path="url(#SVGID_4_)" enable-background="new    ">
			<g>
				<defs>
					<rect id="SVGID_51_" x="192.188" y="11.75" width="65.625" height="75"/>
				</defs>
				<clipPath id="SVGID_52_">
					<use xlink:href="#SVGID_51_"  overflow="visible"/>
				</clipPath>
				<polygon clip-path="url(#SVGID_52_)" fill="#FFFFFF" points="192.188,11.75 192.188,30.5 257.813,86.75 257.813,68 				"/>
			</g>
		</g>
		<path clip-path="url(#SVGID_4_)" fill="#6D6DAA" d="M192.188,260.188h-18.75c-7.764-0.005-14.054-6.299-14.063-14.063V30.5
			c0.009-7.761,6.299-14.053,14.063-14.063h18.75c2.591,0,4.688,2.101,4.688,4.688V255.5
			C196.875,258.086,194.778,260.188,192.188,260.188 M173.438,25.813c-2.586,0.005-4.683,2.101-4.688,4.688v215.625
			c0.005,2.586,2.102,4.688,4.688,4.688H187.5v-225H173.438z"/>
		<path clip-path="url(#SVGID_4_)" fill="#6D6DAA" d="M192.188,269.563c-2.586,0-4.688-2.097-4.688-4.683v-0.005V11.75
			c0-2.586,2.097-4.688,4.688-4.688c1.117,0,2.202,0.398,3.049,1.131l65.625,56.25c1.039,0.89,1.639,2.188,1.639,3.557v140.625
			c0,1.369-0.6,2.669-1.639,3.557l-65.625,56.25C194.39,269.164,193.305,269.563,192.188,269.563 M196.875,21.94v232.746
			l56.25-48.217V70.156L196.875,21.94z"/>
		<path clip-path="url(#SVGID_4_)" fill="#6D6DAA" d="M210.938,194.563c-2.591,0-4.688-2.102-4.688-4.688s2.097-4.688,4.688-4.688
			c2.586,0,4.683-2.102,4.688-4.688V96.125c-0.005-2.586-2.102-4.683-4.688-4.688c-2.591,0-4.688-2.101-4.688-4.688
			s2.097-4.688,4.688-4.688c7.764,0.009,14.054,6.301,14.063,14.063V180.5C224.991,188.264,218.701,194.558,210.938,194.563"/>
	</g>
</g>
</svg>
